<svg width="282" height="74" viewBox="0 0 282 74" fill="none" xmlns="http://www.w3.org/2000/svg">
<rect width="282" height="74" fill="white"/>
<path d="M136.507 54V21H144.557V54H136.507ZM140.457 42.25V35.7H159.807V42.25H140.457ZM140.457 27.85V21H161.607V27.85H140.457Z" fill="#353539"/>
<path d="M177.75 54.7C175.083 54.7 172.717 54.1833 170.65 53.15C168.617 52.1167 167.017 50.5667 165.85 48.5C164.683 46.4333 164.1 43.85 164.1 40.75C164.1 37.65 164.683 35.0833 165.85 33.05C167.017 30.9833 168.633 29.45 170.7 28.45C172.767 27.4167 175.133 26.9 177.8 26.9C180.467 26.9 182.833 27.4167 184.9 28.45C186.967 29.4833 188.583 31.0333 189.75 33.1C190.917 35.1333 191.5 37.7 191.5 40.8C191.5 43.9667 190.9 46.5833 189.7 48.65C188.5 50.7167 186.85 52.25 184.75 53.25C182.683 54.2167 180.35 54.7 177.75 54.7ZM178 48.85C179.2 48.85 180.2 48.5833 181 48.05C181.8 47.4833 182.4 46.6333 182.8 45.5C183.2 44.3667 183.4 42.9667 183.4 41.3C183.4 39.5333 183.183 38.05 182.75 36.85C182.317 35.6167 181.667 34.6833 180.8 34.05C179.967 33.3833 178.883 33.05 177.55 33.05C176.417 33.05 175.433 33.3333 174.6 33.9C173.8 34.4333 173.2 35.2667 172.8 36.4C172.4 37.5333 172.2 38.95 172.2 40.65C172.2 43.3833 172.7 45.4333 173.7 46.8C174.733 48.1667 176.167 48.85 178 48.85Z" fill="#353539"/>
<path d="M196.215 54V27.6H202.815L202.965 36.55H203.965C204.199 34.2167 204.632 32.3667 205.265 31C205.932 29.6 206.865 28.5833 208.065 27.95C209.299 27.3167 210.815 27 212.615 27C212.882 27 213.182 27.0167 213.515 27.05C213.849 27.05 214.232 27.0833 214.665 27.15L214.365 35.75C213.832 35.4833 213.249 35.3167 212.615 35.25C212.015 35.15 211.482 35.1 211.015 35.1C209.715 35.1 208.582 35.35 207.615 35.85C206.682 36.35 205.932 37.1167 205.365 38.15C204.832 39.1833 204.482 40.4833 204.315 42.05V54H196.215Z" fill="#353539"/>
<path d="M229.611 54.65C226.511 54.65 224.228 53.8333 222.761 52.2C221.294 50.5333 220.561 47.8833 220.561 44.25V33.9H216.811L216.961 27.65H219.661C220.728 27.6167 221.528 27.45 222.061 27.15C222.628 26.85 222.978 26.2833 223.111 25.45L223.761 21.75H228.311V27.6H234.661V34.15H228.311V43.9C228.311 45.0333 228.578 45.8667 229.111 46.4C229.678 46.9333 230.528 47.2 231.661 47.2C232.294 47.2 232.894 47.1333 233.461 47C234.028 46.8667 234.494 46.6833 234.861 46.45V53.9C233.794 54.2333 232.811 54.4333 231.911 54.5C231.044 54.6 230.278 54.65 229.611 54.65Z" fill="#353539"/>
<path d="M249.773 63.2C248.44 63.2 247.073 63.0833 245.673 62.85C244.273 62.6167 242.94 62.2667 241.673 61.8C240.44 61.3667 239.373 60.7833 238.473 60.05L240.423 52.9C241.59 54 242.99 54.8167 244.623 55.35C246.29 55.8833 247.89 56.15 249.423 56.15C251.19 56.15 252.64 55.8 253.773 55.1C254.94 54.4333 255.823 53.4 256.423 52C257.057 50.5667 257.423 48.8 257.523 46.7L257.773 42.35H256.573C256.273 44.5167 255.74 46.2833 254.973 47.65C254.24 49.0167 253.29 50.0333 252.123 50.7C250.99 51.3333 249.64 51.65 248.073 51.65C246.14 51.65 244.523 51.1667 243.223 50.2C241.923 49.2333 240.94 47.7833 240.273 45.85C239.64 43.8833 239.323 41.45 239.323 38.55V27.6H247.423V36.55C247.423 39.6167 247.723 41.8167 248.323 43.15C248.957 44.45 249.94 45.1 251.273 45.1C251.973 45.1 252.607 44.9 253.173 44.5C253.74 44.1 254.223 43.5333 254.623 42.8C255.023 42.0667 255.323 41.1833 255.523 40.15C255.757 39.0833 255.873 37.9 255.873 36.6V27.6H263.923V47C263.923 49.1 263.723 51.0167 263.323 52.75C262.957 54.4833 262.39 56 261.623 57.3C260.89 58.6 259.957 59.6833 258.823 60.55C257.69 61.45 256.373 62.1167 254.873 62.55C253.373 62.9833 251.673 63.2 249.773 63.2Z" fill="#353539"/>
<path d="M0 0L154 0L131 74L0 74V0Z" fill="#FF6A00"/>
<path d="M29.5852 54.7C27.4518 54.7 25.5185 54.5 23.7852 54.1C22.0518 53.7 20.5518 53.1 19.2852 52.3C18.0185 51.4667 17.0185 50.4167 16.2852 49.15C15.5518 47.8833 15.1185 46.4167 14.9852 44.75L22.0352 42.4C22.1352 43.8 22.5352 44.9667 23.2352 45.9C23.9352 46.8333 24.8685 47.5333 26.0352 48C27.2352 48.4333 28.5685 48.65 30.0352 48.65C31.4352 48.65 32.6018 48.4833 33.5352 48.15C34.5018 47.7833 35.2185 47.3333 35.6852 46.8C36.1852 46.2333 36.4352 45.6333 36.4352 45C36.4352 44.2667 36.1185 43.6667 35.4852 43.2C34.8518 42.7 33.9852 42.2833 32.8852 41.95C31.7852 41.5833 30.5018 41.2333 29.0352 40.9C27.3685 40.5 25.7352 40.0667 24.1352 39.6C22.5352 39.1333 21.0852 38.5333 19.7852 37.8C18.4852 37.0333 17.4518 36.0667 16.6852 34.9C15.9518 33.7 15.5852 32.2 15.5852 30.4C15.5852 28.3667 16.1018 26.6 17.1352 25.1C18.1685 23.6 19.6852 22.4333 21.6852 21.6C23.6852 20.7333 26.1518 20.3 29.0852 20.3C31.9852 20.3 34.4518 20.7167 36.4852 21.55C38.5185 22.3833 40.0852 23.55 41.1852 25.05C42.2852 26.5167 42.8852 28.2333 42.9852 30.2L35.7852 32.25C35.7852 31.2833 35.6185 30.4333 35.2852 29.7C34.9852 28.9667 34.5518 28.3667 33.9852 27.9C33.4185 27.4 32.7185 27.0333 31.8852 26.8C31.0518 26.5333 30.1018 26.4 29.0352 26.4C27.7685 26.4 26.6852 26.55 25.7852 26.85C24.9185 27.15 24.2685 27.55 23.8352 28.05C23.4018 28.5167 23.1852 29.0667 23.1852 29.7C23.1852 30.5 23.5185 31.1667 24.1852 31.7C24.8852 32.2 25.8185 32.6333 26.9852 33C28.1852 33.3333 29.5018 33.6667 30.9352 34C32.3685 34.3 33.8518 34.6833 35.3852 35.15C36.9185 35.5833 38.3518 36.1667 39.6852 36.9C41.0185 37.6333 42.0852 38.6333 42.8852 39.9C43.7185 41.1333 44.1352 42.7 44.1352 44.6C44.1352 46.6333 43.5852 48.4167 42.4852 49.95C41.4185 51.45 39.8018 52.6167 37.6352 53.45C35.4685 54.2833 32.7852 54.7 29.5852 54.7Z" fill="white"/>
<path d="M49.0453 54V27.6H57.0953V54H49.0453ZM53.0953 23.9C51.562 23.9 50.3786 23.5833 49.5453 22.95C48.7453 22.2833 48.3453 21.35 48.3453 20.15C48.3453 18.8833 48.7453 17.9333 49.5453 17.3C50.3786 16.6333 51.562 16.3 53.0953 16.3C54.662 16.3 55.8453 16.6333 56.6453 17.3C57.4786 17.9333 57.8953 18.8667 57.8953 20.1C57.8953 21.3333 57.4786 22.2833 56.6453 22.95C55.8453 23.5833 54.662 23.9 53.0953 23.9Z" fill="white"/>
<path d="M60.802 54L69.502 40.8L60.852 27.6H70.102L74.452 37.3H75.402L79.752 27.6H89.002L80.302 40.8L89.052 54H79.852L75.402 44.2H74.452L70.102 54H60.802Z" fill="white"/>
<path d="M103.632 54.65C100.532 54.65 98.2491 53.8333 96.7824 52.2C95.3158 50.5333 94.5824 47.8833 94.5824 44.25V33.9H90.8324L90.9824 27.65H93.6824C94.7491 27.6167 95.5491 27.45 96.0824 27.15C96.6491 26.85 96.9991 26.2833 97.1324 25.45L97.7824 21.75H102.332V27.6H108.682V34.15H102.332V43.9C102.332 45.0333 102.599 45.8667 103.132 46.4C103.699 46.9333 104.549 47.2 105.682 47.2C106.316 47.2 106.916 47.1333 107.482 47C108.049 46.8667 108.516 46.6833 108.882 46.45V53.9C107.816 54.2333 106.832 54.4333 105.932 54.5C105.066 54.6 104.299 54.65 103.632 54.65Z" fill="white"/>
<path d="M123.795 63.2C122.462 63.2 121.095 63.0833 119.695 62.85C118.295 62.6167 116.962 62.2667 115.695 61.8C114.462 61.3667 113.395 60.7833 112.495 60.05L114.445 52.9C115.612 54 117.012 54.8167 118.645 55.35C120.312 55.8833 121.912 56.15 123.445 56.15C125.212 56.15 126.662 55.8 127.795 55.1C128.962 54.4333 129.845 53.4 130.445 52C131.078 50.5667 131.445 48.8 131.545 46.7L131.795 42.35H130.595C130.295 44.5167 129.762 46.2833 128.995 47.65C128.262 49.0167 127.312 50.0333 126.145 50.7C125.012 51.3333 123.662 51.65 122.095 51.65C120.162 51.65 118.545 51.1667 117.245 50.2C115.945 49.2333 114.962 47.7833 114.295 45.85C113.662 43.8833 113.345 41.45 113.345 38.55V27.6H121.445V36.55C121.445 39.6167 121.745 41.8167 122.345 43.15C122.978 44.45 123.962 45.1 125.295 45.1C125.995 45.1 126.628 44.9 127.195 44.5C127.762 44.1 128.245 43.5333 128.645 42.8C129.045 42.0667 129.345 41.1833 129.545 40.15C129.778 39.0833 129.895 37.9 129.895 36.6V27.6H137.945V47C137.945 49.1 137.745 51.0167 137.345 52.75C136.978 54.4833 136.412 56 135.645 57.3C134.912 58.6 133.978 59.6833 132.845 60.55C131.712 61.45 130.395 62.1167 128.895 62.55C127.395 62.9833 125.695 63.2 123.795 63.2Z" fill="white"/>
</svg>
