<svg width="278" height="74" viewBox="0 0 278 74" fill="none" xmlns="http://www.w3.org/2000/svg">
<g clip-path="url(#clip0_70_105)">
<path d="M0 0L154 0L131 74L0 74V0Z" fill="#FF6A00"/>
<path d="M124.089 63.2001C122.755 63.2001 121.389 63.0834 119.989 62.8501C118.589 62.6168 117.255 62.2668 115.989 61.8001C114.755 61.3668 113.689 60.7834 112.789 60.0501L114.739 52.9001C115.905 54.0001 117.305 54.8168 118.939 55.3501C120.605 55.8834 122.205 56.1501 123.739 56.1501C125.505 56.1501 126.955 55.8001 128.089 55.1001C129.255 54.4334 130.139 53.4001 130.739 52.0001C131.372 50.5668 131.739 48.8001 131.839 46.7001L132.089 42.3501H130.889C130.589 44.5168 130.055 46.2834 129.289 47.6501C128.555 49.0168 127.605 50.0334 126.439 50.7001C125.305 51.3334 123.955 51.6501 122.389 51.6501C120.455 51.6501 118.839 51.1668 117.539 50.2001C116.239 49.2334 115.255 47.7834 114.589 45.8501C113.955 43.8834 113.639 41.4501 113.639 38.5501V27.6001H121.739V36.5501C121.739 39.6168 122.039 41.8168 122.639 43.1501C123.272 44.4501 124.255 45.1001 125.589 45.1001C126.289 45.1001 126.922 44.9001 127.489 44.5001C128.055 44.1001 128.539 43.5334 128.939 42.8001C129.339 42.0668 129.639 41.1834 129.839 40.1501C130.072 39.0834 130.189 37.9001 130.189 36.6001V27.6001H138.239V47.0001C138.239 49.1001 138.039 51.0168 137.639 52.7501C137.272 54.4834 136.705 56.0001 135.939 57.3001C135.205 58.6001 134.272 59.6834 133.139 60.5501C132.005 61.4501 130.689 62.1168 129.189 62.5501C127.689 62.9834 125.989 63.2001 124.089 63.2001Z" fill="white"/>
<path d="M103.926 54.65C100.826 54.65 98.5428 53.8333 97.0762 52.2C95.6095 50.5333 94.8762 47.8833 94.8762 44.25V33.9H91.1262L91.2762 27.65H93.9762C95.0428 27.6167 95.8428 27.45 96.3762 27.15C96.9428 26.85 97.2928 26.2833 97.4262 25.45L98.0762 21.75H102.626V27.6H108.976V34.15H102.626V43.9C102.626 45.0333 102.893 45.8667 103.426 46.4C103.993 46.9333 104.843 47.2 105.976 47.2C106.609 47.2 107.209 47.1333 107.776 47C108.343 46.8667 108.809 46.6833 109.176 46.45V53.9C108.109 54.2333 107.126 54.4333 106.226 54.5C105.359 54.6 104.593 54.65 103.926 54.65Z" fill="white"/>
<path d="M61.0957 54.0001L69.7957 40.8001L61.1457 27.6001H70.3957L74.7457 37.3001H75.6957L80.0457 27.6001H89.2957L80.5957 40.8001L89.3457 54.0001H80.1457L75.6957 44.2001H74.7457L70.3957 54.0001H61.0957Z" fill="white"/>
<path d="M49.3391 54V27.6H57.3891V54H49.3391ZM53.3891 23.9C51.8558 23.9 50.6724 23.5834 49.8391 22.95C49.0391 22.2834 48.6391 21.35 48.6391 20.15C48.6391 18.8834 49.0391 17.9334 49.8391 17.3C50.6724 16.6334 51.8558 16.3 53.3891 16.3C54.9558 16.3 56.1391 16.6334 56.9391 17.3C57.7724 17.9334 58.1891 18.8667 58.1891 20.1C58.1891 21.3334 57.7724 22.2834 56.9391 22.95C56.1391 23.5834 54.9558 23.9 53.3891 23.9Z" fill="white"/>
<path d="M32.6 54.6999C30.8333 54.6999 29.2333 54.5332 27.8 54.1999C26.3667 53.8999 25.1167 53.4499 24.05 52.8499C22.9833 52.2499 22.1 51.5332 21.4 50.6999C20.7333 49.8332 20.2667 48.8832 20 47.8499L26 45.1999C26.2333 45.7666 26.6333 46.3499 27.2 46.9499C27.8 47.5166 28.5833 47.9832 29.55 48.3499C30.55 48.7166 31.75 48.8999 33.15 48.8999C34.4833 48.8999 35.5167 48.7166 36.25 48.3499C37.0167 47.9499 37.4 47.3832 37.4 46.6499C37.4 46.1166 37.1833 45.6999 36.75 45.3999C36.35 45.0666 35.7333 44.7832 34.9 44.5499C34.0667 44.2832 33.0333 44.0332 31.8 43.7999C30.5333 43.5332 29.25 43.2332 27.95 42.8999C26.65 42.5332 25.4333 42.0499 24.3 41.4499C23.1667 40.8166 22.25 39.9999 21.55 38.9999C20.8833 37.9666 20.55 36.6666 20.55 35.0999C20.55 33.4666 20.9833 32.0499 21.85 30.8499C22.7167 29.6166 24 28.6499 25.7 27.9499C27.4333 27.2499 29.5333 26.8999 32 26.8999C34.2 26.8999 36.1333 27.1832 37.8 27.7499C39.4667 28.3166 40.85 29.1332 41.95 30.1999C43.0833 31.2332 43.8667 32.4832 44.3 33.9499L37.85 36.2499C37.6833 35.5166 37.3333 34.8832 36.8 34.3499C36.3 33.8166 35.65 33.4166 34.85 33.1499C34.0833 32.8499 33.1667 32.6999 32.1 32.6999C30.8 32.6999 29.7833 32.8999 29.05 33.2999C28.35 33.6999 28 34.2332 28 34.8999C28 35.4332 28.2333 35.8832 28.7 36.2499C29.2 36.5832 29.9 36.8666 30.8 37.0999C31.7 37.3332 32.7667 37.5832 34 37.8499C35.3 38.1166 36.5833 38.4332 37.85 38.7999C39.15 39.1332 40.3167 39.5999 41.35 40.1999C42.4167 40.7666 43.25 41.5332 43.85 42.4999C44.4833 43.4332 44.8 44.6499 44.8 46.1499C44.8 47.9166 44.3333 49.4499 43.4 50.7499C42.4667 52.0166 41.0833 52.9999 39.25 53.6999C37.45 54.3666 35.2333 54.6999 32.6 54.6999Z" fill="white"/>
<path d="M243.83 63.2001C242.497 63.2001 241.13 63.0834 239.73 62.8501C238.33 62.6168 236.997 62.2668 235.73 61.8001C234.497 61.3668 233.43 60.7834 232.53 60.0501L234.48 52.9001C235.647 54.0001 237.047 54.8168 238.68 55.3501C240.347 55.8834 241.947 56.1501 243.48 56.1501C245.247 56.1501 246.697 55.8001 247.83 55.1001C248.997 54.4334 249.88 53.4001 250.48 52.0001C251.113 50.5668 251.48 48.8001 251.58 46.7001L251.83 42.3501H250.63C250.33 44.5168 249.797 46.2834 249.03 47.6501C248.297 49.0168 247.347 50.0334 246.18 50.7001C245.047 51.3334 243.697 51.6501 242.13 51.6501C240.197 51.6501 238.58 51.1668 237.28 50.2001C235.98 49.2334 234.997 47.7834 234.33 45.8501C233.697 43.8834 233.38 41.4501 233.38 38.5501V27.6001H241.48V36.5501C241.48 39.6168 241.78 41.8168 242.38 43.1501C243.013 44.4501 243.997 45.1001 245.33 45.1001C246.03 45.1001 246.663 44.9001 247.23 44.5001C247.797 44.1001 248.28 43.5334 248.68 42.8001C249.08 42.0668 249.38 41.1834 249.58 40.1501C249.813 39.0834 249.93 37.9001 249.93 36.6001V27.6001H257.98V47.0001C257.98 49.1001 257.78 51.0168 257.38 52.7501C257.013 54.4834 256.447 56.0001 255.68 57.3001C254.947 58.6001 254.013 59.6834 252.88 60.5501C251.747 61.4501 250.43 62.1168 248.93 62.5501C247.43 62.9834 245.73 63.2001 243.83 63.2001Z" fill="#FF6A00"/>
<path d="M223.668 54.65C220.568 54.65 218.284 53.8333 216.818 52.2C215.351 50.5333 214.618 47.8833 214.618 44.25V33.9H210.868L211.018 27.65H213.718C214.784 27.6167 215.584 27.45 216.118 27.15C216.684 26.85 217.034 26.2833 217.168 25.45L217.818 21.75H222.368V27.6H228.718V34.15H222.368V43.9C222.368 45.0333 222.634 45.8667 223.168 46.4C223.734 46.9333 224.584 47.2 225.718 47.2C226.351 47.2 226.951 47.1333 227.518 47C228.084 46.8667 228.551 46.6833 228.918 46.45V53.9C227.851 54.2333 226.868 54.4333 225.968 54.5C225.101 54.6 224.334 54.65 223.668 54.65Z" fill="#FF6A00"/>
<path d="M190.272 54V41.75V27.6H196.872L197.022 36.55H198.022C198.255 34.2167 198.689 32.3667 199.322 31C199.989 29.6 200.922 28.5833 202.122 27.95C203.355 27.3167 204.872 27 206.672 27C206.939 27 207.239 27.0167 207.572 27.05C207.905 27.05 208.289 27.0833 208.722 27.15L208.422 35.75C207.889 35.4833 207.305 35.3167 206.672 35.25C206.072 35.15 205.539 35.1 205.072 35.1C203.772 35.1 202.639 35.35 201.672 35.85C200.739 36.35 199.989 37.1167 199.422 38.15C198.889 39.1833 198.539 40.4833 198.372 42.05V54H190.272Z" fill="#FF6A00"/>
<path d="M171.807 54.6999C169.14 54.6999 166.773 54.1832 164.707 53.1499C162.673 52.1166 161.073 50.5666 159.907 48.4999C158.74 46.4332 158.157 43.8499 158.157 40.7499C158.157 37.6499 158.74 35.0832 159.907 33.0499C161.073 30.9832 162.69 29.4499 164.757 28.4499C166.823 27.4166 169.19 26.8999 171.857 26.8999C174.523 26.8999 176.89 27.4166 178.957 28.4499C181.023 29.4832 182.64 31.0332 183.807 33.0999C184.973 35.1332 185.557 37.6999 185.557 40.7999C185.557 43.9666 184.957 46.5832 183.757 48.6499C182.557 50.7166 180.907 52.2499 178.807 53.2499C176.74 54.2166 174.407 54.6999 171.807 54.6999ZM172.057 48.8499C173.257 48.8499 174.257 48.5832 175.057 48.0499C175.857 47.4832 176.457 46.6332 176.857 45.4999C177.257 44.3666 177.457 42.9666 177.457 41.2999C177.457 39.5332 177.24 38.0499 176.807 36.8499C176.373 35.6166 175.723 34.6832 174.857 34.0499C174.023 33.3832 172.94 33.0499 171.607 33.0499C170.473 33.0499 169.49 33.3332 168.657 33.8999C167.857 34.4332 167.257 35.2666 166.857 36.3999C166.457 37.5332 166.257 38.9499 166.257 40.6499C166.257 43.3832 166.757 45.4332 167.757 46.7999C168.79 48.1666 170.223 48.8499 172.057 48.8499Z" fill="#FF6A00"/>
<path d="M141.1 54V41.5L142 38.5L143 35L144 32L144.25 31.15C142.983 30.9166 141.933 30.5 141.1 29.9C140.3 29.2666 139.717 28.5333 139.35 27.7C138.983 26.8666 138.8 25.9666 138.8 24.9999C138.8 23.5333 139.183 22.2833 139.95 21.2499C140.717 20.1833 141.8 19.3666 143.2 18.7999C144.6 18.2333 146.233 17.95 148.1 17.95C149.733 17.95 151.217 18.15 152.55 18.5499C153.883 18.9166 154.95 19.3833 155.75 19.9499L155.3 27.2C154.467 26.6333 153.517 26.1666 152.45 25.8C151.417 25.4333 150.45 25.2499 149.55 25.2499C148.617 25.2499 147.833 25.5 147.2 26C146.567 26.4666 146.25 27.25 146.25 28.35C146.25 29.2166 146.433 29.8666 146.8 30.2999C147.2 30.7333 147.683 31.0333 148.25 31.2C148.817 31.3333 149.383 31.4 149.95 31.4H155.75V37.65H148.95V54H141.1Z" fill="#FF6A00"/>
</g>
<rect x="2.5" y="2.5" width="273" height="69" rx="6.5" stroke="#FF6A00" stroke-width="5"/>
<defs>
<clipPath id="clip0_70_105">
<rect width="278" height="74" rx="9" fill="white"/>
</clipPath>
</defs>
</svg>
